<svg fill="#FFFFFF" xmlns="http://www.w3.org/2000/svg"  viewBox="0 0 64 64" width="64px" height="64px"><path d="M37.289 28.973l7.139-7.313L15.401 6.325C14.7 5.955 13.95 5.898 13.27 6.072L37.289 28.973zM11.084 8.284C11.033 8.505 11 8.736 11 8.978v46.044c0 .272.036.531.101.777l22.911-23.469L11.084 8.284zM37.248 35.723L13.355 57.949c.657.147 1.374.081 2.046-.274l28.447-15.029L37.248 35.723zM58.979 29.347l-9.489-5.013-8.638 8.036 8.003 7.631 10.124-5.349C61.111 33.526 61.111 30.474 58.979 29.347z"/></svg>